<svg id="Layer_1" data-name="Layer 1" xmlns="http://www.w3.org/2000/svg" viewBox="0 0 320 80"><defs><style>.cls-1,.cls-3{fill:#536a7f;}.cls-1{stroke:#fff;stroke-width:3px;}.cls-1,.cls-2{stroke-miterlimit:10;}.cls-2{fill:#fff;stroke:#536a7f;}</style></defs><title>logo-blue-letters</title><rect class="cls-1" width="320" height="80"/><rect class="cls-2" x="9.92" y="11.15" width="300.17" height="58.7"/><path class="cls-3" d="M27.32,41.34V30.41q0-3.33-2.28-3.33a2.49,2.49,0,0,0-.89.13,4.72,4.72,0,0,1-1.16.19A1.28,1.28,0,0,1,22,27a1.55,1.55,0,0,1-.4-1.09q0-1.62,1.89-1.62l.67,0,3.1.31a38.6,38.6,0,0,0,3.92.18q1.17,0,5-.14l5.18-.18,2.43-.13a9.62,9.62,0,0,1,1.35-.09q2.38,0,2.39,2.11a20.54,20.54,0,0,1-.23,2.48,20.45,20.45,0,0,0-.23,2.52q0,.72.09,1.8t.09,2Q47.3,37,45.68,37T44,34.87q0-.63.07-1.93T44.15,31q0-2.37-1.35-3t-6.39-.63q-4.28,0-4.86.77-.45.59-.45,4.14v3.33q0,1.26.34,1.55a3.5,3.5,0,0,0,1.87.29h1.48q2.92,0,2.92-2.16A11,11,0,0,0,37.6,34a10.77,10.77,0,0,1-.11-1.3q0-1.71,1.62-1.71t1.53,2a10.61,10.61,0,0,1-.1,1.08l-.31,2.43A20.6,20.6,0,0,0,40,38.87a29.52,29.52,0,0,0,.47,4.68,11,11,0,0,1,.16,1.8q0,1.75-1.62,1.75t-1.53-1.89q0-.45.07-1.35t.07-1.35q0-1.39-.77-1.8a4.42,4.42,0,0,0-2.07-.31h-1.4a3.19,3.19,0,0,0-1.94.36,3.23,3.23,0,0,0-.36,2V48a5.79,5.79,0,0,0,.47,2.83,2,2,0,0,0,1.78.74h2q2.07,0,2.07,1.53a1.44,1.44,0,0,1-.47,1.08,1.6,1.6,0,0,1-1.15.45,14.54,14.54,0,0,1-2.12-.22,28.87,28.87,0,0,0-4.5-.32,23.9,23.9,0,0,0-3.46.27l-1.53.22a1.31,1.31,0,0,0-.31,0h-.27q-2,0-2-1.62A1.25,1.25,0,0,1,23,51.6l1.17.09a3.6,3.6,0,0,0,.95.13,1.84,1.84,0,0,0,1.69-.74,5.5,5.5,0,0,0,.52-2.63Z"/><path class="cls-3" d="M58.91,35.66v14q0,2.29,1.23,2.29a5.85,5.85,0,0,0,1.14-.22A5.71,5.71,0,0,1,62,51.6a1.34,1.34,0,0,1,1.5,1.53q0,1.49-1.84,1.49a22.79,22.79,0,0,1-2.29-.18A22.83,22.83,0,0,0,57,54.26a19,19,0,0,0-2.15.18,19.11,19.11,0,0,1-2.11.18h-.22q-1.88,0-1.88-1.62,0-1.39,1.54-1.39h.32a2,2,0,0,0,.41.06,11.25,11.25,0,0,0,1.32.25.94.94,0,0,0,1-.7,19.32,19.32,0,0,0,.25-3.64l0-3.16v-15a13.89,13.89,0,0,0-.13-1.81,1.26,1.26,0,0,0-1.26-1q-.13,0-1.17.18a4.68,4.68,0,0,1-.81.09q-1.53,0-1.53-1.44t1.8-1.49a7,7,0,0,1,.85,0l1.08.13a7.44,7.44,0,0,0,2.56,0,10,10,0,0,1,1.35-.14q1,0,1,1.3a3.72,3.72,0,0,1,0,.67Q58.91,29.32,58.91,35.66Z"/><path class="cls-3" d="M86.63,55q-3.69,0-4.54-3.2-2.3,3.38-7.2,3.38a8.88,8.88,0,0,1-5.83-1.8,5.92,5.92,0,0,1-2.18-4.82,5.84,5.84,0,0,1,3.19-5.49,8.36,8.36,0,0,1,2.09-.88q.88-.2,3.53-.52a13.55,13.55,0,0,0,4.93-1.12,2.89,2.89,0,0,0,1.15-2.66A3.56,3.56,0,0,0,80.49,35,5.47,5.47,0,0,0,76.91,34a6.88,6.88,0,0,0-3.78,1.13q-.68.45-.67.95,0,.18.4.45A1.75,1.75,0,0,1,73.49,38a1.91,1.91,0,0,1-.65,1.48,2.37,2.37,0,0,1-1.64.58,2.62,2.62,0,0,1-2-.81,2.73,2.73,0,0,1-.79-2A5.23,5.23,0,0,1,70.95,33,10.08,10.08,0,0,1,77,31.17q8.19,0,8.19,7.86V48.1a19.06,19.06,0,0,0,.09,2.56q.27,1.57,1.53,1.57,1.57,0,1.57-2.86V47.18q0-1.43,1.37-1.43t1.46,2.16V50.7Q91.13,55,86.63,55Zm-5-9v-3.2a5.74,5.74,0,0,1-2.08,1.26,20.77,20.77,0,0,1-3.92.63q-5.11.5-5.11,3.78a3.27,3.27,0,0,0,1.24,2.7,5.22,5.22,0,0,0,3.35,1,6.62,6.62,0,0,0,4.75-1.64A6.08,6.08,0,0,0,81.63,46.07Z"/><path class="cls-3" d="M106.7,48.23V45.35q0-1.85,1.62-1.85t1.58,2.07q0,4.91-1.25,6.84Q106.94,55,103.06,55,99.48,55,98,52.73q-1.12-1.66-1.12-5.67V36.26q0-.94-.87-.94H94.5a1.67,1.67,0,0,1-1.22-.47,1.54,1.54,0,0,1-.48-1.15,1.59,1.59,0,0,1,.47-1.12,1.44,1.44,0,0,1,1.06-.5h1.75q.76,0,.77-.85V26.58a1.53,1.53,0,0,1,1.75-1.71q1.62,0,1.62,1.71V31.4q0,.68.81.67h4.9q1.71,0,1.71,1.58t-1.84,1.67h-5q-.63,0-.63.94V47.33q0,4.73,3.15,4.73T106.7,48.23Z"/><path class="cls-3" d="M126.23,48.23V45.35q0-1.85,1.62-1.85t1.58,2.07q0,4.91-1.25,6.84Q126.47,55,122.58,55q-3.58,0-5.09-2.29-1.12-1.66-1.12-5.67V36.26q0-.94-.87-.94H114a1.67,1.67,0,0,1-1.22-.47,1.54,1.54,0,0,1-.48-1.15,1.59,1.59,0,0,1,.47-1.12,1.44,1.44,0,0,1,1.06-.5h1.75q.76,0,.77-.85V26.58a1.53,1.53,0,0,1,1.75-1.71q1.62,0,1.62,1.71V31.4q0,.68.81.67h4.9q1.71,0,1.71,1.58t-1.84,1.67h-5q-.63,0-.63.94V47.33q0,4.73,3.15,4.73T126.23,48.23Z"/><path class="cls-3" d="M151,30.41Q151,27,148.73,27a5.84,5.84,0,0,0-.95.09,8.13,8.13,0,0,1-1.21.13,1.25,1.25,0,0,1-1.39-1.44q0-1.57,2-1.57a5,5,0,0,1,.58,0l2.38.31a21.81,21.81,0,0,0,2.88.18,23.68,23.68,0,0,0,2.52-.14l2.92-.31q.85-.09,2.25-.09a17.5,17.5,0,0,1,6.84,1.17,11.66,11.66,0,0,1,5.69,5.31,17.83,17.83,0,0,1,2.09,8.77,18.41,18.41,0,0,1-1.67,7.94,11.37,11.37,0,0,1-4.54,5.2,16.32,16.32,0,0,1-8.37,2q-1,0-2-.09l-3.11-.27q-1.57-.14-3.29-.14a17.64,17.64,0,0,0-2.43.14l-2.16.31-.31,0h-.36q-1.94,0-1.93-1.58a1.48,1.48,0,0,1,.4-1.06,1.31,1.31,0,0,1,1-.43,6.8,6.8,0,0,1,1.21.13,3.66,3.66,0,0,0,.95.09q2.3,0,2.29-3.37Zm3.78-.46v19a2.33,2.33,0,0,0,2,2.51,21.82,21.82,0,0,0,3.78.18q5.4,0,7.83-2.92a13.92,13.92,0,0,0,2.92-9.23,15.12,15.12,0,0,0-1.78-7.6,8.12,8.12,0,0,0-4.88-4,17.06,17.06,0,0,0-4.77-.58,13.16,13.16,0,0,0-4.34.4Q154.8,28.07,154.8,29.95Z"/><path class="cls-3" d="M200.75,41.21a5.55,5.55,0,0,1-.22,2.09q-.23.38-1.3.38H184.91a1.26,1.26,0,0,0-.76.16.66.66,0,0,0-.18.52A8.1,8.1,0,0,0,186,50a6.71,6.71,0,0,0,8.66,1.17,4.94,4.94,0,0,0,2.14-2.75l.41-1.3A1.4,1.4,0,0,1,198.68,46a1.49,1.49,0,0,1,1.67,1.71q0,2.93-3,5.2a10.82,10.82,0,0,1-6.75,2.27A9.5,9.5,0,0,1,183.11,52a12.45,12.45,0,0,1-2.79-8.53,13.1,13.1,0,0,1,3-8.91A9.77,9.77,0,0,1,191,31.17,9.3,9.3,0,0,1,198,34,9.93,9.93,0,0,1,200.75,41.21ZM184.41,40q0,.63,1,.63h10.75q.94,0,.95-.63a5.6,5.6,0,0,0-1.8-4.14,5.86,5.86,0,0,0-4.23-1.75A6.78,6.78,0,0,0,186.48,36,5.36,5.36,0,0,0,184.41,40Z"/><path class="cls-3" d="M215.07,31.17a7.92,7.92,0,0,1,5,1.58v-.18q0-1.66,1.44-1.67A1.29,1.29,0,0,1,223,32.34q0,.27-.08,1.35a11,11,0,0,0-.15,1.8,15.72,15.72,0,0,0,.11,1.57q.11,1,.11,1.58,0,1.71-1.46,1.71a1.31,1.31,0,0,1-1.46-1.44V37.43a2.89,2.89,0,0,0-1.55-2.32,6.4,6.4,0,0,0-3.53-1,5.57,5.57,0,0,0-3.46,1.06,3.19,3.19,0,0,0-1.4,2.63q0,2.88,4,3.42l2.61.36q7.65,1,7.65,6.34a6.43,6.43,0,0,1-2.47,5.24,9.94,9.94,0,0,1-6.46,2A10.26,10.26,0,0,1,209,53.09v.86q0,1.62-1.53,1.62t-1.67-1.85a22.6,22.6,0,0,0,.27-2.34,9,9,0,0,0,.09-1.26,10.91,10.91,0,0,0-.18-2,8.45,8.45,0,0,1-.18-1.48q0-1.57,1.44-1.58.94,0,1.19.45a6.93,6.93,0,0,1,.29,2.38,3.72,3.72,0,0,0,2,3.15,9.5,9.5,0,0,0,5,1.21,5.75,5.75,0,0,0,3.65-1.12,3.46,3.46,0,0,0,1.44-2.83q0-3.06-4.86-3.56a19.42,19.42,0,0,1-7.07-1.82,4.85,4.85,0,0,1-2.43-4.66,6.3,6.3,0,0,1,2.38-5.11A9.42,9.42,0,0,1,215.07,31.17Z"/><path class="cls-3" d="M236.57,41.39v5.85q0,2.25,0,2.66.23,2,1.21,2a6.71,6.71,0,0,0,1.13-.22,1.93,1.93,0,0,1,.68-.09q1.71,0,1.71,1.48a1.34,1.34,0,0,1-.57,1.08,2.21,2.21,0,0,1-1.42.45,17.67,17.67,0,0,1-2.19-.2,17.55,17.55,0,0,0-2.19-.2,21.34,21.34,0,0,0-2.62.18,23.43,23.43,0,0,1-2.35.22q-1.81,0-1.81-1.53t1.54-1.48a6.2,6.2,0,0,1,1.07.13,6.18,6.18,0,0,0,1.07.13q1.09,0,1.32-2.88V37.47q-.23-2.84-1.36-2.83a4.75,4.75,0,0,0-1,.16,4.66,4.66,0,0,1-1,.16q-1.63,0-1.63-1.44t2-1.53a11.41,11.41,0,0,1,1.21,0q1.44.18,1.84.18a8.11,8.11,0,0,0,1.1-.11,8.21,8.21,0,0,1,1.1-.11q1.31,0,1.3,1.75c0,.12,0,.3,0,.54s0,.42,0,.54,0,1.17-.07,2.79Q236.57,39.46,236.57,41.39ZM234.23,29.6a2.54,2.54,0,0,1-2.52-2.52,2.35,2.35,0,0,1,.74-1.76,2.55,2.55,0,0,1,3.55,0,2.35,2.35,0,0,1,.74,1.76,2.53,2.53,0,0,1-2.52,2.52Z"/><path class="cls-3" d="M255.42,31.17a11.42,11.42,0,0,1,2.66.36q.22-4.41,5.13-4.41a5.49,5.49,0,0,1,3.46,1.08,3.33,3.33,0,0,1,1.4,2.74,2.64,2.64,0,0,1-.7,1.85,2.15,2.15,0,0,1-1.64.77,1.8,1.8,0,0,1-1.26-.5,1.54,1.54,0,0,1-.54-1.17,2,2,0,0,1,1-1.48,2.26,2.26,0,0,0-1.84-.9q-2.39,0-2.43,3a7.08,7.08,0,0,1,3.42,6.17,6.61,6.61,0,0,1-2.35,5.17,8.54,8.54,0,0,1-5.87,2.07,12.74,12.74,0,0,1-5.14-1.17,3.2,3.2,0,0,0-1.22-.31,1.48,1.48,0,0,0-1.13.56,1.94,1.94,0,0,0-.5,1.33q0,2.34,4.74,2.34h1.62a24.56,24.56,0,0,1,6.95.81,8.46,8.46,0,0,1,3.92,2.38,5.31,5.31,0,0,1,1.44,3.63,5.85,5.85,0,0,1-3,5.18,15.34,15.34,0,0,1-8.21,1.91,15.57,15.57,0,0,1-8.12-1.8,5.55,5.55,0,0,1-2.95-5q0-3.64,4.09-5.17-3.69-1.44-3.69-4.32,0-3.15,3.69-4.32a6,6,0,0,1-1.17-3.69,6.42,6.42,0,0,1,2.36-5.09A8.77,8.77,0,0,1,255.42,31.17Zm.18,20.43a12.37,12.37,0,0,0-5.67,1.08,3.26,3.26,0,0,0-2.07,2.92,3.22,3.22,0,0,0,2,2.9,11.85,11.85,0,0,0,5.45,1.06A12.53,12.53,0,0,0,261,58.49a3.1,3.1,0,0,0,.11-5.83A11.9,11.9,0,0,0,255.6,51.6Zm0-17.46a5.08,5.08,0,0,0-3.37,1.17,4.1,4.1,0,0,0-1.53,2.92v.27A4.09,4.09,0,0,0,252,41.7a5,5,0,0,0,3.51,1.21,5.44,5.44,0,0,0,3.67-1.21,3.91,3.91,0,0,0,1.42-3.1,4.06,4.06,0,0,0-1.44-3.2A5.27,5.27,0,0,0,255.56,34.14Z"/><path class="cls-3" d="M277.74,33.31v1.28a8.71,8.71,0,0,1,7.2-3.42,9.09,9.09,0,0,1,4.59,1.24,6.47,6.47,0,0,1,2.93,3.08,10.69,10.69,0,0,1,.63,4V48q0,1.94,0,2.29.22,1.53,1.21,1.53a6.5,6.5,0,0,0,1.06-.11,6.42,6.42,0,0,1,.92-.11,1.42,1.42,0,0,1,1,.41,1.31,1.31,0,0,1,.43,1,1.4,1.4,0,0,1-.54,1.13,2,2,0,0,1-1.3.45,19.21,19.21,0,0,1-2.07-.18,21.84,21.84,0,0,0-2.7-.18,16.92,16.92,0,0,0-1.93.09q-2.25.27-2.38.27-1.8,0-1.8-1.58,0-1.39,1.56-1.39a4.35,4.35,0,0,1,.83.09,7.63,7.63,0,0,0,1.1.18q1.1,0,1.19-2.47V41a15.91,15.91,0,0,0-.22-3.29A4.34,4.34,0,0,0,287.74,35a5.72,5.72,0,0,0-3.36-1,5.57,5.57,0,0,0-5.16,2.56q-1.08,1.76-1.08,6v6a8.89,8.89,0,0,0,.27,2.7,1,1,0,0,0,1,.72,4.33,4.33,0,0,0,1-.16,4.47,4.47,0,0,1,1-.16q1.39,0,1.39,1.51T281,54.62q-.36,0-2.34-.27a16.27,16.27,0,0,0-2.21-.14,23.33,23.33,0,0,0-2.52.18q-2,.22-2.25.22-1.89,0-1.89-1.53a1.28,1.28,0,0,1,1.47-1.44,4.87,4.87,0,0,1,.85.13,5.68,5.68,0,0,0,1.21.13q1.38,0,1.42-2.61v-12a5.76,5.76,0,0,0-.39-2.09,1.07,1.07,0,0,0-1-.56,5.74,5.74,0,0,0-.94.11,5.7,5.7,0,0,1-.94.11q-1.65,0-1.65-1.44t2-1.48a1.94,1.94,0,0,1,.45,0l1.67.18a6.22,6.22,0,0,0,1.26-.11l1.21-.11Q277.74,31.94,277.74,33.31Z"/></svg>